<svg viewBox="0 0 820 641" xmlns="http://www.w3.org/2000/svg" fill-rule="evenodd" clip-rule="evenodd" stroke-miterlimit="10"><g stroke="#ddd"><path d="M5.177 142.319l131.171-45.52 134.674 85.006 104.896-148.77L751.213 6.619 623.895 117.298l191.082 40.53L344.82 359.824l74.732 180.396 170.104 48.341-130.845 46.589-327.932-255.055 3.718-195.218-129.42-42.558z" fill="none"/><path d="M344.819 359.824l279.074-242.526M375.917 33.036l-31.098 326.789m-213.937 20.268L375.915 33.04" fill="#fff" fill-rule="nonzero"/><path d="M134.595 184.875l1.751-88.072-1.751 88.072z" fill="#fff" fill-rule="nonzero" stroke-linejoin="round" stroke-miterlimit="1.414"/><path d="M136.348 96.8l-1.751 88.079" fill="none"/><path d="M419.555 540.22l39.253 94.93M271.02 181.807l73.798 178.018" fill="#fff" fill-rule="nonzero"/><path d="M5.177 142.452l129.42-1.613 136.423 40.968 89.348 14.624L752.058 6.619M130.882 380.093l75.239-239.254" fill="none" stroke-linecap="round" stroke-linejoin="round" stroke-miterlimit="1.5"/><path d="M134.597 184.877l71.524 88.652 608.856-115.701-258.573 18.121-196.036 20.482 65.622 92.853 170.857-37.74-252.029 108.281-213.939 20.27L419.552 540.22l-181.79-170.252-31.641-96.439" fill="none" stroke-linecap="round" stroke-linejoin="round" stroke-miterlimit="1.5"/><path d="M344.818 359.825l-138.697-86.296 64.901-91.724 96.877-64.507L750.149 7.544" fill="none" stroke-linecap="round" stroke-linejoin="round" stroke-miterlimit="1.5"/><path d="M556.404 175.949l-188.505-58.651 181.37-96.464" fill="none" stroke-linecap="round" stroke-linejoin="round" stroke-miterlimit="1.5"/><path d="M375.917 33.037l86.234 34.132v79.455l135.024-95.157-40.771 124.482m40.443 75.595l27.046-134.246 69.764 49.033M344.82 359.824l45.313-121.263 166.271-62.612m-45.678 39.696l86.121 35.899m-40.443-75.595l51.392 21.25M462.151 90.236l87.118-69.402M355.718 245.101l-84.696-63.296m-64.901 91.724l-6.287-112.697-63.144-63.528m208.13 262.521l-22.64 89.204-191.301-68.934m191.301 68.934h-67.028l35.346 55.212 129.054 35.979-31.08 40.223 55.035 14.075 146.149-5.957M301.522 255.4l-19.291 65.485-151.352 59.21" fill="none" stroke-linecap="round" stroke-linejoin="round" stroke-miterlimit="1.5"/><path d="M282.231 320.885l-44.469 49.083-15.917 42.188 33.307 36.873M134.6 140.848l41.155 94.915-42.758 33.11" fill="none" stroke-linecap="round" stroke-linejoin="round" stroke-miterlimit="1.5"/><path d="M239.709 371.791l93.791 32.636 86.052 135.793" fill="none" stroke-linecap="round" stroke-linejoin="round" stroke-miterlimit="1.5"/><path d="M322.18 449.029l7.45 41.312 33.572-2.894-29.702-83.02" fill="none" stroke-linecap="round" stroke-linejoin="round" stroke-miterlimit="1.5"/><path d="M363.202 487.447l12.157-16.965-6.325-52.208-35.534-13.847m-3.87 85.914l-39.132 13.9m333.397-386.943l-37.344-29.945m10.296-35.454l-47.833-31.048m47.833 31.616l36.446-37.548m-25.23 182.229l85.594-30.817m-85.594 30.868l91.76 10.103" fill="none" stroke-linecap="round" stroke-linejoin="round" stroke-miterlimit="1.5"/></g><circle cx="198.917" cy="161.279" r="5.052" fill="#ddd"/><circle cx="135.934" cy="185.416" r="5.052" fill="#ddd"/><circle cx="175.486" cy="235.739" r="5.052"/><circle cx="205.69" cy="273.924" r="5.052" fill="#ddd"/><circle cx="132.997" cy="268.873" r="5.052" fill="#ddd"/><circle cx="131.745" cy="379.909" r="5.052"/><circle cx="237.992" cy="369.805" r="5.052" fill="#ddd"/><circle cx="227.889" cy="342.298" r="5.052" fill="#ddd"/><circle cx="282.231" cy="320.885" r="5.052" fill="#ddd"/><circle cx="301.522" cy="255.4" r="5.052" fill="#ddd"/><circle cx="390.222" cy="238.606" r="5.052" fill="#ddd"/><circle cx="359.88" cy="195.785" r="5.052" fill="#ddd"/><circle cx="462.453" cy="145.891" r="5.052" fill="#ddd"/><circle cx="367.899" cy="116.978" r="5.052" fill="#ddd"/><circle cx="462.453" cy="90.236" r="5.052"/><circle cx="462.151" cy="67.048" r="5.052" fill="#ddd"/><circle cx="375.917" cy="33.037" r="5.052" fill="#ddd"/><circle cx="549.269" cy="20.834" r="5.052" fill="#ddd"/><circle cx="597.175" cy="51.899" r="5.052" fill="#ddd"/><circle cx="633.331" cy="15.782" r="5.052" fill="#ddd"/><circle cx="749.342" cy="5.678" r="5.052" fill="#ddd"/><circle cx="586.551" cy="87.353" r="5.052"/><circle cx="556.52" cy="175.507" r="5.052"/><circle cx="510.865" cy="216.156" r="5.052" fill="#ddd"/><circle cx="596.847" cy="251.544" r="5.052" fill="#ddd"/><circle cx="700.014" cy="206.052" r="5.052" fill="#ddd"/><circle cx="608.203" cy="197.201" r="5.052" fill="#ddd"/><circle cx="689.911" cy="165.907" r="5.052" fill="#ddd"/><circle cx="813.048" cy="158.308" r="5.052"/><circle cx="426.136" cy="289.251" r="5.052" fill="#ddd"/><circle cx="271.022" cy="181.805" r="5.052"/><circle cx="206.121" cy="140.839" r="5.052" fill="#ddd"/><circle cx="355.718" cy="244.909" r="5.052" fill="#ddd"/><circle cx="345.308" cy="359.702" r="5.052"/><circle cx="222.837" cy="412.67" r="5.052" fill="#ddd"/><circle cx="335.205" cy="404.427" r="5.052" fill="#ddd"/><circle cx="370.131" cy="417.722" r="5.052" fill="#ddd"/><circle cx="375.183" cy="469.08" r="5.052" fill="#ddd"/><circle cx="363.202" cy="487.447" r="5.052" fill="#ddd"/><circle cx="419.807" cy="540.22" r="5.052"/><circle cx="290.498" cy="504.241" r="5.052" fill="#ddd"/><circle cx="255.152" cy="449.029" r="5.052" fill="#ddd"/><circle cx="329.63" cy="490.341" r="5.052" fill="#ddd"/><circle cx="389.15" cy="580.339" r="5.052" fill="#ddd"/><circle cx="441.691" cy="594.518" r="5.052" fill="#ddd"/><circle cx="458.978" cy="634.401" r="5.052" fill="#ddd"/><circle cx="589.656" cy="588.937" r="5.052" fill="#ddd"/><circle cx="322.061" cy="449.029" r="5.052"/><circle cx="135.931" cy="140.839" r="5.052" fill="#ddd"/><circle cx="135.931" cy="97.304" r="5.052"/><circle cx="5.177" cy="140.839" r="5.052" fill="#ddd"/></svg>