<?xml version="1.0" encoding="UTF-8" standalone="no"?><!DOCTYPE svg PUBLIC "-//W3C//DTD SVG 1.1//EN" "http://www.w3.org/Graphics/SVG/1.1/DTD/svg11.dtd"><svg width="100%" height="100%" viewBox="0 0 163 169" version="1.1" xmlns="http://www.w3.org/2000/svg" xmlns:xlink="http://www.w3.org/1999/xlink" xml:space="preserve" xmlns:serif="http://www.serif.com/" style="fill-rule:evenodd;clip-rule:evenodd;stroke-linejoin:round;stroke-miterlimit:1.41421;"><g><rect x="0.672" y="0.266" width="161.661" height="167.999" style="fill:#fff;"/><path d="M66.415,51.903c8.787,-6.029 18.58,-8.095 21.861,-8.742c7.116,-1.403 4.697,1.84 3.432,5.403c-0.443,1.249 -1.757,3.929 -2.34,5.708c-0.417,1.271 1.778,0.801 2.535,0.32c2.022,-1.285 3.658,-2.124 4.549,-2.413c1.624,-0.527 2.396,0.137 1.714,2.787c-0.682,2.65 -3.735,11.846 -3.735,11.846c0,0 -42.193,-5.179 -28.016,-14.909Z" style="fill:#ffa300;"/><path d="M40.087,49.272c-0.346,-0.658 -0.616,-1.42 -0.791,-2.3c-1.52,-7.632 5.832,-9.472 7.225,-6.58c1.109,2.301 2.463,5.832 5.812,7.845c0.86,0.517 1.01,0.532 -0.011,-0.777c-0.671,-0.86 -1.271,-2.162 -1.647,-4.224c-0.949,-5.2 4.59,-6.993 5.862,-2.159c0.945,3.592 2.364,6.423 4.872,8.473c9.91,0.727 20.017,4.372 30.096,11.015c23.923,15.767 43.245,60.107 40.664,107.699l-131.497,0l0,-81.166c11.574,-17.305 24.632,-28.771 38.476,-34.147c-8.543,0.672 -5.113,-5.82 -1.326,-4.738c0.408,0.117 1.03,0.679 2.265,1.059Z"/><path d="M79.292,64.789c1.404,-0.616 -1.482,-1.255 -5.306,-0.105c-2.836,0.853 -5.796,3.669 -5.943,7.571c-0.118,3.132 0.799,3.96 1.271,3.543c0.471,-0.417 0.356,-2.387 0.6,-3.369c0.804,-3.231 4.125,-6.24 6.984,-6.988c0.815,-0.213 1.786,-0.386 2.394,-0.652Z" style="fill:#fff;"/></g></svg>