<svg viewBox="0 0 53 54" xmlns="http://www.w3.org/2000/svg" fill-rule="evenodd" clip-rule="evenodd" stroke-linejoin="round" stroke-miterlimit="1.414"><path d="M18.886 30.947c2.456.095 4.558 2.158 4.653 4.653.057 4.566.428 9.241-.023 13.686-.231 2.268-2.25 4.196-4.629 4.288-4.562.061-9.119.441-13.687-.023-2.27-.23-4.197-2.247-4.289-4.629-.057-4.566-.428-9.242.023-13.687.231-2.273 2.248-4.196 4.63-4.288a558.12 558.12 0 0 1 13.322 0zm26.972 0c2.455.095 4.558 2.158 4.652 4.653.058 4.566.429 9.241-.023 13.686-.23 2.268-2.249 4.196-4.629 4.288-4.561.061-9.118.441-13.686-.023-2.27-.23-4.197-2.247-4.289-4.629-.057-4.566-.429-9.242.023-13.687.231-2.273 2.248-4.196 4.63-4.288a558.12 558.12 0 0 1 13.322 0zm-13.193 1.998c-1.453.018-2.726 1.247-2.782 2.706a520.165 520.165 0 0 0 0 13.22c.055 1.427 1.273 2.648 2.704 2.704 4.406.058 8.813.058 13.219 0 1.425-.055 2.651-1.275 2.705-2.704.055-4.407.055-8.814 0-13.221-.055-1.449-1.323-2.704-2.782-2.705H32.665zm-26.972 0c-1.453.018-2.726 1.247-2.782 2.706a520.165 520.165 0 0 0 0 13.22c.055 1.427 1.273 2.648 2.704 2.704 4.406.058 8.814.058 13.22 0 1.424-.055 2.65-1.275 2.704-2.704.056-4.407.056-8.814 0-13.221-.055-1.449-1.322-2.704-2.782-2.705H5.693zM18.886 4.326c2.429.091 4.558 2.159 4.653 4.653.057 4.566.429 9.24-.023 13.686-.231 2.269-2.244 4.2-4.63 4.289-4.561.06-9.118.441-13.686-.023-2.272-.231-4.197-2.247-4.289-4.63-.057-4.566-.428-9.24.023-13.686.231-2.274 2.244-4.2 4.63-4.289a510.01 510.01 0 0 1 13.322 0zm21.068-3.5a4.582 4.582 0 0 1 2.948 1.217c2.976 2.899 6.18 5.618 8.796 8.826 1.338 1.641 1.277 4.232-.224 5.854-2.897 2.978-5.621 6.182-8.826 8.796-1.641 1.338-4.234 1.28-5.855-.224-2.977-2.897-6.177-5.616-8.795-8.826-1.338-1.64-1.281-4.232.224-5.855 2.795-2.868 5.663-5.664 8.494-8.495A4.542 4.542 0 0 1 39.954.826zM5.693 6.325c-1.454.019-2.726 1.246-2.782 2.705a520.165 520.165 0 0 0 0 13.22c.055 1.426 1.274 2.651 2.704 2.704 4.406.058 8.814.058 13.22 0 1.42-.053 2.65-1.275 2.704-2.704.056-4.406.056-8.814 0-13.22-.054-1.424-1.274-2.651-2.704-2.704-4.38-.058-8.761-.001-13.142-.001zm34.096-3.5a2.519 2.519 0 0 0-1.618.668 473.005 473.005 0 0 0-8.499 8.5c-.85.916-.852 2.432 0 3.353a451.026 451.026 0 0 0 8.499 8.499c.914.848 2.434.853 3.354 0a433.74 433.74 0 0 0 8.498-8.499c.85-.917.855-2.433.001-3.354a454.033 454.033 0 0 0-8.499-8.499c-.479-.443-.973-.677-1.736-.668z" fill-rule="nonzero"/></svg>