<svg viewBox="0 0 52 54" xmlns="http://www.w3.org/2000/svg" fill-rule="evenodd" clip-rule="evenodd" stroke-linejoin="round" stroke-miterlimit="1.414"><path d="M26.128.902c10.151.091 20.423 5.865 24.253 15.405 2.804 6.983 1.555 15.637-4.915 20.256-4.166 2.974-10.148 1.398-14.839 2.67-2.16.586-2.395 2.9-.637 5.95 1.752 3.157-.181 7.551-4.386 7.814-9.007.565-18.473-5.308-22.789-13.723C-3.691 26.587 1.393 8.597 16.05 2.776 19.245 1.508 22.687.888 26.128.902zm-.315 2C15.062 2.999 4.54 10.586 2.228 21.73c-2.695 12.994 5.88 27.821 21.425 29.233 2.106.192 4.53.015 5.095-2.347.449-1.875-2.017-3.013-2.2-6.35-.156-2.823 2.28-5.157 5.933-5.254 1.843-.049 3.329.287 5.956.056 5.558-.488 10.415-5.265 11.239-10.912 1.712-11.733-9.969-23.051-23.409-23.253l-.454-.001zM41.03 17.724c4.421.168 7.258 7.598 1.869 9.876-3.668 1.551-8.711-2.656-6.634-6.965.866-1.799 2.487-2.939 4.765-2.911zm-30.559-.013c3.57.136 6.253 4.532 4.263 7.806-2.492 4.102-11.616 1.632-9.18-4.551.777-1.971 2.514-3.285 4.917-3.255zm-.214 2c-1.906.072-3.48 2.1-2.94 4 .487 1.714 2.596 2.732 4.243 2.035 2.526-1.071 2.579-6.084-1.303-6.035zm30.56.013c-2.742.104-4.342 4.681-1.141 6.034 2.043.864 4.795-1.11 4.299-3.528-.298-1.455-1.523-2.527-3.158-2.506zM18.777 6.637c4.525.173 6.769 7.801 1.869 9.876-4.011 1.7-9.709-3.899-5.806-8.193 1.004-1.104 2.175-1.705 3.937-1.683zm13.924-.082c4.463.17 7.108 7.66 1.869 9.876-3.791 1.604-8.994-3.128-6.397-7.402.951-1.564 2.43-2.5 4.528-2.474zM18.563 8.637c-2.69.102-4.376 4.573-1.21 6.004 2.197.993 5.317-1.418 4.187-4.085-.491-1.157-1.704-1.935-2.977-1.919zm13.924-.082c-2.726.104-4.346 4.678-1.14 6.034 2.021.855 4.744-1.046 4.314-3.451-.266-1.488-1.51-2.604-3.174-2.583z" fill-rule="nonzero"/></svg>