<svg viewBox="0 0 53 50" xmlns="http://www.w3.org/2000/svg" fill-rule="evenodd" clip-rule="evenodd" stroke-linejoin="round" stroke-miterlimit="1.414"><path d="M46.323.337c3.158.067 5.967 2.751 6.033 6.032.072 12.244.243 24.49-.002 36.731-.096 3.125-2.87 5.894-6.032 5.954-13.251.063-26.504.249-39.752-.001-3.129-.104-5.893-2.777-5.954-6.032-.072-12.243-.23-24.489.001-36.73C.717 3.174 3.404.405 6.649.337c13.224-.063 26.449-.063 39.674 0zm4.152 16.533H2.544c-.058 8.727-.092 17.454.073 26.179.067 2.102 1.891 3.964 4.056 4.005 13.226.062 26.454.249 39.677-.001 2.101-.069 3.962-1.866 4.006-4.058.051-8.708.153-17.417.119-26.125zM29.269 22.7c.623.084 1.034.711.851 1.32l-5.377 15.689c-.269.694-.461.617-.805.666-.684.097-1.3-.603-1.087-1.314l5.378-15.69c.168-.434.393-.707 1.04-.671zm-9.642 3.165c.851.073 1.26 1.332.466 1.851l-6.44 3.94 6.469 3.726c.812.571.162 2.264-.996 1.73-2.688-1.441-5.288-3.041-7.931-4.563-.589-.364-.639-1.265-.074-1.687 2.593-1.696 5.285-3.235 7.929-4.852.171-.098.235-.154.577-.145zm13.839.001c.141.013.276.051.403.114 2.691 1.537 5.287 3.232 7.931 4.849.579.379.605 1.282.028 1.688-2.596 1.601-5.286 3.045-7.929 4.567-.882.472-2.261-.955-.998-1.734l6.418-3.694-6.491-3.973c-.712-.529-.46-1.856.638-1.817zM50.465 14.87a637.904 637.904 0 0 0-.11-8.528c-.065-2.088-1.874-3.959-4.058-4.006-13.189-.062-26.378 0-39.567 0-2.137.01-4.073 1.894-4.114 4.059-.017 2.825-.038 5.65-.058 8.475h47.907zM23.91 5.109c3.123.122 5.08 5.371 1.318 6.962-2.587 1.093-6.143-1.871-4.677-4.911.612-1.267 1.756-2.07 3.359-2.051zm-15.755 0c3.124.122 5.08 5.371 1.317 6.962C6.887 13.163 3.33 10.2 4.796 7.16c.611-1.267 1.755-2.07 3.359-2.051zm7.878 0c3.122.121 5.081 5.372 1.317 6.962-2.585 1.092-6.142-1.871-4.676-4.911.613-1.272 1.777-2.07 3.359-2.051zM8.02 7.108c-1.788.07-1.772 4.085.637 3.135A1.628 1.628 0 0 0 9.661 9.02c.167-.935-.635-1.923-1.641-1.912zm15.755 0c-1.547.061-2.313 3.189 0 3.247 1.657.042 2.088-3.271 0-3.247zm-7.878 0c-1.528.06-2.363 3.187 0 3.247 1.656.042 2.168-3.272 0-3.247z" fill-rule="nonzero"/></svg>