<svg viewBox="0 0 53 45" xmlns="http://www.w3.org/2000/svg" fill-rule="evenodd" clip-rule="evenodd" stroke-linejoin="round" stroke-miterlimit="1.414"><path d="M4.294 23.882C3.64 12.149 13.353.445 26.035.162c.191-.003.382-.004.574-.003 9.834.095 19.017 7.473 21.448 17.003 2.823.389 6.333 1.896 4.335 5.263-.915 1.541-2.353 2.705-4.072 3.641-1.35 7.273-6.354 13.905-13.204 16.806-10.022 4.244-22.693-.637-28.151-10.092a21.672 21.672 0 0 1-3.944-1.156 9.4 9.4 0 0 1-.554-.244C.773 30.569-.857 28.385.708 26.386c.923-1.18 2.823-2.148 3.586-2.504zm41.649 3.288c-1.772.709-3.692 1.28-5.567 1.829.06 1.319-.546 2.624-2.139 3.299-1.611.682-3.596-.12-4.598-1.572-1.858.687-5.363.977-8.273 1.376-5.257.721-10.746 1.56-15.931 1.039 3.679 5.594 10.131 9.437 16.899 9.479 8.953.056 17.181-6.823 19.609-15.45zm.582-2.884c.22-1.792.185-3.631-.145-5.477-1.631-9.111-10.065-16.5-19.653-16.649-.131-.002-.262-.002-.393-.002-11.905.116-22.216 12.348-19.663 24.431a18.63 18.63 0 0 0 1.419 4.169c.342.038.7.073 1.077.106 7.937.696 15.956-.478 23.824-2.087l.006-.002c-.006-.46.084-.94.29-1.427.597-1.41 1.845-2.329 3.576-2.305 1.19.044 2.22.811 2.852 1.846 1.542-.87 4.373-1.616 6.81-2.603zm-9.805 2.756c-1.683.062-2.583 3.553.046 3.553 1.811 0 2.161-3.583-.046-3.553zm-32.195-1.05C2.271 27.157-.342 29.3 5.801 30.431a19.806 19.806 0 0 1-1.276-4.439zm43.943-6.786a20.605 20.605 0 0 1 .186 4.067c1.067-.62 1.877-1.339 2.181-2.211.411-1.181-1.18-1.662-2.367-1.856zM23.556 6.381c1.036.112 1.471 1.658-.399 2.091-5.214 1.263-9.497 5.565-10.674 10.896 0 0-3.025 2.733-1.568-1.883 1.74-5.515 6.577-9.914 12.369-11.087 0 0 .096-.024.272-.017z" fill-rule="nonzero"/></svg>