<svg viewBox="0 0 36 54" xmlns="http://www.w3.org/2000/svg" fill-rule="evenodd" clip-rule="evenodd" stroke-linejoin="round" stroke-miterlimit="1.414"><path d="M11.334 47.896c.069.009.069.009.137.023 4.277 1.188 8.466 2.671 12.698 4.008.964.342.761 2.19-.535 1.926-4.277-1.189-8.466-2.672-12.698-4.009-1.731-.614-.682-2.015.398-1.948zm.031-4.479c.074.01.142.026.214.047L25.36 48.14c.996.38.603 2.267-.643 1.894l-13.781-4.676c-1.943-.74-.405-2.001.429-1.941zM18.294.465c11.165.215 20.607 12.32 16.643 23.954-1.979 5.808-8.94 9.116-8.98 15.378 0 0-.398 1.216-1.348.931l-8.63-3.204c-1.902-.852-.212-2.146.696-1.875l7.363 2.734c.017-.145.038-.29.059-.434.898-5.557 7.071-8.668 8.947-14.175 2.768-8.125-2.041-18.149-10.468-20.656C11.935-.048-.798 10.574 2.893 22.905c1.815 6.063 8.799 9.256 9.294 16.059l13.041 4.619c.997.428.71 2.274-.668 1.885l-13.673-4.842c-.688-.291-.634-.293-.681-1.292C9.772 32.04-.643 27.618.329 16.675 1.095 8.063 8.754.64 17.834.465c.23-.002.229-.002.46 0z" fill-rule="nonzero"/></svg>