<svg viewBox="0 0 53 52" xmlns="http://www.w3.org/2000/svg" fill-rule="evenodd" clip-rule="evenodd" stroke-linejoin="round" stroke-miterlimit="1.414"><path d="M18.901 5.203c-.046-1.846-.1-3.943.079-4.436.147-.403.458-.669.983-.657 1.303.085 1.084 2.724.984 5.086 3.886-.01 7.773-.01 11.659 0-.131-2.497-.495-5.121 1.075-5.086 1.305.085 1.084 2.731.983 5.093 1.977.007 3.953.016 5.93.029 3.679.07 6.942 3.314 7.011 7.012.013 1.98.023 3.961.03 5.942 1.379-.02 2.759-.015 4.137.015 1.014.066 1.16 1.922 0 1.998-1.4.03-2.976.173-4.131.108.01 3.822.01 7.643 0 11.465 1.179-.071 2.768.117 4.131.146 1.014.067 1.16 1.923 0 1.999-1.335.029-2.928.068-4.137-.064a2014.1 2014.1 0 0 1-.03 6.021c-.069 3.661-3.297 6.941-7.01 7.011-1.963.016-3.925.028-5.888.037.103 1.185-.041 2.769-.07 4.13-.066.998-1.917 1.25-1.998 0-.03-1.343-.087-3.007-.057-4.122-3.864.013-7.728.013-11.592 0 .101 1.185-.041 2.764-.071 4.122-.064.981-1.912 1.32-1.998 0-.03-1.346-.087-3.016-.056-4.13-1.968-.009-3.935-.021-5.902-.037-3.677-.069-6.941-3.314-7.011-7.011-.012-1.977-.022-3.953-.029-5.93-2.064.088-4.254.28-4.832-.351-.504-.55-.124-1.621.694-1.675 1.377-.03 2.754-.035 4.131-.014-.01-3.896-.01-7.792 0-11.688-2.857.052-6.244-.002-4.853-1.659.633-.755 2.848-.495 4.86-.389.007-1.975.017-3.95.029-5.924.069-3.671 3.314-6.942 7.012-7.012 1.979-.013 3.958-.022 5.937-.029zm-5.843 2.028c-2.669.017-5.056 2.361-5.106 5.038-.058 9.215-.173 18.432.001 27.645.083 2.614 2.394 4.922 5.037 4.971 9.214.073 18.431.174 27.644-.001 2.59-.082 4.887-2.344 4.97-4.97.175-9.235.175-18.476 0-27.711-.082-2.592-2.359-4.888-4.97-4.97-9.19-.174-18.384-.002-27.576-.002zm19.669 5.454c4.296.088 7.847 4.809 6.409 9.058-.923 2.725-3.722 4.92-6.59 4.655a1 1 0 0 1-.374-.111c-.844-.444-.697-1.809.777-1.894 4.404-.312 6.583-8.551.549-9.632a4.892 4.892 0 0 0-1.419-.045c-2.305.265-4.256 2.364-4.3 4.764-.027 4.424.088 8.848-.003 13.27-.151 4.91-6.677 8.601-11.025 5.269-4.293-3.289-2.627-12.132 3.992-12.302 1.135-.029 1.85 1.893-.136 2.008-4.208.288-6.742 7.9-1.017 9.523 2.837.804 6.124-1.463 6.188-4.612.029-4.656-.535-9.344.056-13.965.42-3.289 3.483-6.007 6.893-5.986z" fill-rule="nonzero"/></svg>